<svg id="&#x421;&#x43B;&#x43E;&#x439;_1" height="512" viewBox="0 0 128 128" width="512" xmlns="http://www.w3.org/2000/svg"><path d="m74.68 61.32a2 2 0 0 0 -2.83 0l-18.53 18.53a2 2 0 1 0 2.83 2.83l18.53-18.53a2 2 0 0 0 0-2.83z"/><path d="m62.92 58a10.57 10.57 0 0 0 -2.92 5.62 2 2 0 0 0 3.94.72 6.58 6.58 0 0 1 1.83-3.49l6.91-6.91a6.65 6.65 0 0 1 9.41 9.41l-6.91 6.91a6.58 6.58 0 0 1 -3.49 1.83 2 2 0 0 0 .31 3.91 2 2 0 0 0 .36 0 10.56 10.56 0 0 0 5.64-2.92l6.91-6.9a10.65 10.65 0 0 0 -15.08-15.07z"/><path d="m52.84 73.75a6.58 6.58 0 0 1 3.49-1.83 2 2 0 0 0 -.71-3.92 10.56 10.56 0 0 0 -5.62 2.92l-6.91 6.9a10.65 10.65 0 0 0 15.08 15.07l6.91-6.89a10.57 10.57 0 0 0 2.92-5.62 2 2 0 1 0 -3.94-.72 6.58 6.58 0 0 1 -1.83 3.49l-6.91 6.91a6.65 6.65 0 0 1 -9.41-9.41z"/><path d="m76 40v1a2 2 0 0 0 4 0v-1a16 16 0 0 1 15.94-16h11.21l-8.55 8.58a2 2 0 1 0 2.83 2.82l12-12a2 2 0 0 0 0-2.82l-12-12a2 2 0 0 0 -2.83 2.82l8.55 8.6h-11.21a20 20 0 0 0 -19.94 20z"/><path d="m126 104h-10.33a5.91 5.91 0 0 0 .33-1.94v-64.12a6 6 0 0 0 -5.94-5.94 2 2 0 0 0 0 4 2 2 0 0 1 1.94 1.94v64.11a2 2 0 0 1 -1.94 1.94h-92.12a2 2 0 0 1 -1.94-1.93v-64.12a2 2 0 0 1 1.94-1.94h52.86a2 2 0 0 0 0-4h-52.86a6 6 0 0 0 -5.94 5.94v64.11a5.91 5.91 0 0 0 .33 1.94h-10.33a2 2 0 0 0 -2 2v.5c0 4.51 3.64 9.51 8.5 9.51h111c4.86 0 8.5-5 8.5-9.5v-.5a2 2 0 0 0 -2-2zm-6.5 8h-111c-1.95 0-3.67-1.95-4.27-4h119.54c-.6 2.05-2.32 4-4.27 4z"/></svg>