<svg id="Capa_1" enable-background="new 0 0 512 512" height="512" viewBox="0 0 512 512" width="512" xmlns="http://www.w3.org/2000/svg"><g><g><g><path d="m135.516 361.494c12.439 0 22.561-10.121 22.561-22.561v-24.118l20.445 12.779c17.342 10.831 39.797-1.618 39.797-22.065v-53.676c0-20.442-22.454-32.899-39.8-22.062l-30.095 18.81h-27.97c-16.592 0-30.091 13.499-30.091 30.091 0 14.003 9.616 25.803 22.591 29.144v31.098c0 12.439 10.121 22.56 22.562 22.56zm7.56-22.56c0 4.169-3.392 7.561-7.561 7.561-4.17 0-7.562-3.392-7.562-7.561v-30.151h15.122v30.151zm43.391-96.422c7.339-4.582 16.852.681 16.852 9.342v53.676c0 8.656-9.509 13.923-16.849 9.344l-28.394-17.747v-36.869zm-81.104 36.179c0-8.321 6.769-15.091 15.091-15.091h22.622v30.182h-22.622c-8.321 0-15.091-6.769-15.091-15.091z"/><path d="m409.12 0h-306.24c-56.729 0-102.88 46.151-102.88 102.88v306.24c0 56.729 46.151 102.88 102.88 102.88h47.7c4.143 0 7.5-3.357 7.5-7.5s-3.357-7.5-7.5-7.5h-47.7c-48.457 0-87.88-39.423-87.88-87.88v-288.696h482v288.696c0 48.457-39.423 87.88-87.88 87.88h-223.54c-4.143 0-7.5 3.357-7.5 7.5s3.357 7.5 7.5 7.5h223.54c56.729 0 102.88-46.151 102.88-102.88v-306.24c0-56.729-46.151-102.88-102.88-102.88zm-394.12 105.424v-2.544c0-48.457 39.423-87.88 87.88-87.88h306.24c48.457 0 87.88 39.423 87.88 87.88v2.544z"/><path d="m421.667 37.651c-12.439 0-22.561 10.121-22.561 22.56s10.121 22.561 22.561 22.561c12.439 0 22.561-10.121 22.561-22.561 0-12.439-10.122-22.56-22.561-22.56zm0 30.121c-4.169 0-7.561-3.392-7.561-7.561s3.392-7.56 7.561-7.56 7.561 3.392 7.561 7.56c0 4.17-3.392 7.561-7.561 7.561z"/><path d="m353.894 37.651c-12.439 0-22.561 10.121-22.561 22.56s10.121 22.561 22.561 22.561c12.439 0 22.561-10.121 22.561-22.561-.001-12.439-10.122-22.56-22.561-22.56zm0 30.121c-4.169 0-7.561-3.392-7.561-7.561s3.392-7.56 7.561-7.56 7.561 3.392 7.561 7.56c-.001 4.17-3.393 7.561-7.561 7.561z"/><path d="m286.121 37.651c-12.439 0-22.561 10.121-22.561 22.56s10.121 22.561 22.561 22.561c12.439 0 22.561-10.121 22.561-22.561 0-12.439-10.122-22.56-22.561-22.56zm0 30.121c-4.169 0-7.561-3.392-7.561-7.561s3.392-7.56 7.561-7.56 7.561 3.392 7.561 7.56c0 4.17-3.392 7.561-7.561 7.561z"/><path d="m323.77 158.14h-216.54c-30.062 0-54.52 24.458-54.52 54.521v161.99c0 30.062 24.458 54.52 54.52 54.52h95c10.885 0 21.123 4.239 28.826 11.933l19.64 19.641c2.927 2.927 7.677 2.93 10.607 0l19.636-19.637c7.707-7.697 17.945-11.937 28.83-11.937h95c30.062 0 54.521-24.457 54.521-54.52v-161.991c0-30.062-24.458-54.521-54.521-54.521h-46c-4.142 0-7.5 3.357-7.5 7.5s3.358 7.5 7.5 7.5h46c21.792 0 39.521 17.729 39.521 39.521v161.99c0 21.791-17.729 39.52-39.521 39.52h-95c-14.888 0-28.892 5.797-39.434 16.327l-14.335 14.337-14.34-14.341c-10.538-10.526-24.542-16.323-39.43-16.323h-95c-21.792 0-39.52-17.728-39.52-39.52v-161.99c0-21.792 17.728-39.521 39.52-39.521h216.54c4.143 0 7.5-3.357 7.5-7.5 0-4.142-3.358-7.499-7.5-7.499z"/><path d="m240.97 242.194v102.914c0 21.436 17.44 38.876 38.876 38.876h102.914c21.436 0 38.877-17.44 38.877-38.876v-102.914c0-21.437-17.44-38.876-38.877-38.876h-102.914c-21.437 0-38.876 17.44-38.876 38.876zm165.667 0v102.914c0 13.165-10.711 23.876-23.877 23.876h-102.914c-13.165 0-23.876-10.711-23.876-23.876v-102.914c0-13.165 10.711-23.876 23.876-23.876h102.914c13.166 0 23.877 10.711 23.877 23.876z"/><path d="m353.894 308.682h3.766c18.707 0 33.856-15.146 33.856-33.855 0-18.669-15.188-33.857-33.856-33.857h-3.766c-4.143 0-7.5 3.357-7.5 7.5v52.712c0 4.142 3.357 7.5 7.5 7.5zm7.5-52.341c8.615 1.738 15.122 9.366 15.122 18.485 0 9.325-6.697 16.803-15.122 18.487z"/><path d="m271.697 298.228c-1.632 3.807.132 8.216 3.939 9.848 3.807 1.633 8.217-.133 9.848-3.939l4.506-10.515h22.382l4.506 10.515c1.219 2.845 3.987 4.548 6.897 4.548 5.358 0 9.013-5.502 6.89-10.456-7.499-17.499-15.521-36.216-22.247-51.911-.001-.001 0 0-.001-.001l-.343-.801c-1.183-2.758-3.894-4.545-6.895-4.545-3 0-5.711 1.788-6.893 4.546-.499 1.17-11.689 27.278-22.589 52.711zm29.485-30.719 4.762 11.112h-9.525z"/><path d="m384.016 331.333h-105.425c-4.143 0-7.5 3.357-7.5 7.5s3.357 7.5 7.5 7.5h105.425c4.143 0 7.5-3.357 7.5-7.5s-3.358-7.5-7.5-7.5z"/></g></g></g></svg>