<svg id="Layer_1" height="512" viewBox="0 0 1000 1000" width="512" xmlns="http://www.w3.org/2000/svg" data-name="Layer 1"><path d="m726.47 916h-452.94a80.47 80.47 0 0 1 -80.38-80.38v-562.35a80.47 80.47 0 0 1 80.38-80.38h101.4a16 16 0 0 1 0 32h-101.4a48.44 48.44 0 0 0 -48.38 48.38v562.35a48.43 48.43 0 0 0 48.38 48.38h452.94a48.43 48.43 0 0 0 48.38-48.38v-562.35a48.44 48.44 0 0 0 -48.38-48.38h-101.4a16 16 0 0 1 0-32h101.4a80.47 80.47 0 0 1 80.38 80.38v562.35a80.47 80.47 0 0 1 -80.38 80.38z"/><path d="m615 275.38h-229.95a31.72 31.72 0 0 1 -31.52-35.33l2.16-18.94a76.19 76.19 0 0 1 63.43-66.54c5.88-39.73 39.74-70.42 80.58-70.57h.3a81.83 81.83 0 0 1 81 70.59 76.19 76.19 0 0 1 63.29 66.52l2.16 18.94a31.72 31.72 0 0 1 -31.45 35.33zm-229.59-32h229.23l-2.13-18.63a44.16 44.16 0 0 0 -43.9-39.16 18.86 18.86 0 0 1 -18.84-18.84v-1a49.78 49.78 0 0 0 -49.77-49.75h-.18c-27.35.1-49.59 22.86-49.59 50.75a18.86 18.86 0 0 1 -18.84 18.84 44.16 44.16 0 0 0 -43.9 39.16z"/><path d="m722.39 399.06h-314.12a16 16 0 0 1 0-32h314.12a16 16 0 0 1 0 32z"/><path d="m722.39 559.22h-314.12a16 16 0 0 1 0-32h314.12a16 16 0 1 1 0 32z"/><path d="m722.39 719.38h-314.12a16 16 0 0 1 0-32h314.12a16 16 0 0 1 0 32z"/><path d="m591.14 469.74h-182.87a16 16 0 0 1 0-32h182.87a16 16 0 1 1 0 32z"/><path d="m591.14 629.9h-182.87a16 16 0 0 1 0-32h182.87a16 16 0 0 1 0 32z"/><path d="m591.14 790.05h-182.87a16 16 0 0 1 0-32h182.87a16 16 0 1 1 0 32z"/><path d="m348.28 469.74h-70.67a16 16 0 0 1 -16-16v-70.68a16 16 0 0 1 16-16h70.67a16 16 0 0 1 16 16v70.68a16 16 0 0 1 -16 16zm-54.67-32h38.67v-38.68h-38.67z"/><path d="m348.28 629.9h-70.67a16 16 0 0 1 -16-16v-70.68a16 16 0 0 1 16-16h70.67a16 16 0 0 1 16 16v70.68a16 16 0 0 1 -16 16zm-54.67-32h38.67v-38.68h-38.67z"/><path d="m348.28 790.05h-70.67a16 16 0 0 1 -16-16v-70.67a16 16 0 0 1 16-16h70.67a16 16 0 0 1 16 16v70.67a16 16 0 0 1 -16 16zm-54.67-32h38.67v-38.67h-38.67z"/></svg>