<svg id="Layer_1" height="512" viewBox="0 0 64 64" width="512" xmlns="http://www.w3.org/2000/svg" data-name="Layer 1"><path d="m32 49a8 8 0 1 1 8-8 8.009 8.009 0 0 1 -8 8zm0-14a6 6 0 1 0 6 6 6.006 6.006 0 0 0 -6-6z"/><path d="m44 62a1 1 0 0 1 -1-1v-6c0-1.018-3.883-3-11-3s-11 1.982-11 3v6a1 1 0 0 1 -2 0v-6c0-3.283 6.54-5 13-5s13 1.717 13 5v6a1 1 0 0 1 -1 1z"/><path d="m49 44a8 8 0 1 1 8-8 8.009 8.009 0 0 1 -8 8zm0-14a6 6 0 1 0 6 6 6.006 6.006 0 0 0 -6-6z"/><path d="m61 57a1 1 0 0 1 -1-1v-6c0-1.018-3.883-3-11-3-4.1 0-7.9.715-9.9 1.866a1 1 0 1 1 -1-1.732c2.325-1.334 6.4-2.134 10.9-2.134 6.46 0 13 1.717 13 5v6a1 1 0 0 1 -1 1z"/><path d="m15 44a8 8 0 1 1 8-8 8.009 8.009 0 0 1 -8 8zm0-14a6 6 0 1 0 6 6 6.006 6.006 0 0 0 -6-6z"/><path d="m3 57a1 1 0 0 1 -1-1v-6c0-3.283 6.54-5 13-5 4.5 0 8.575.8 10.894 2.134a1 1 0 1 1 -1 1.732c-1.994-1.151-5.789-1.866-9.894-1.866-7.117 0-11 1.982-11 3v6a1 1 0 0 1 -1 1z"/><path d="m16.089 27a1 1 0 0 1 -.935-.647 18 18 0 0 1 33.692-12.706 1 1 0 1 1 -1.871.706 16 16 0 0 0 -29.95 11.294 1 1 0 0 1 -.583 1.289 1.013 1.013 0 0 1 -.353.064z"/><path d="m32 32a12 12 0 1 1 12-12 12.013 12.013 0 0 1 -12 12zm0-22a10 10 0 1 0 10 10 10.011 10.011 0 0 0 -10-10z"/><path d="m32 26a6 6 0 1 1 6-6 6.006 6.006 0 0 1 -6 6zm0-10a4 4 0 1 0 4 4 4 4 0 0 0 -4-4z"/><path d="m58 25h-8.308a1 1 0 0 1 -.692-.28l-3.865-3.72h-13.135a1 1 0 0 1 0-2h13.135l3.865-3.72a1 1 0 0 1 .693-.28h8.307a1 1 0 0 1 .694 1.72l-3.406 3.28 3.406 3.28a1 1 0 0 1 -.694 1.72zm-7.9-2h5.42l-2.077-2h-5.424zm-2.077-4h5.424l2.077-2h-5.424z"/></svg>