<svg id="Capa_1" enable-background="new 0 0 512 512" height="512" viewBox="0 0 512 512" width="512" xmlns="http://www.w3.org/2000/svg"><g><path d="m505.107 471.828-76.035-76.035c-4.445-4.445-10.354-6.893-16.64-6.893-3.696 0-7.259.852-10.473 2.453l-19.462-19.462c15.752-18.191 25.293-41.899 25.293-67.794 0-57.177-46.517-103.693-103.694-103.693s-103.693 46.516-103.693 103.693 46.517 103.694 103.693 103.694c25.895 0 49.603-9.542 67.794-25.293l19.462 19.462c-1.601 3.214-2.453 6.777-2.453 10.473 0 6.286 2.448 12.195 6.893 16.64l76.035 76.035c4.445 4.445 10.354 6.893 16.64 6.893s12.195-2.448 16.64-6.892c4.445-4.445 6.893-10.354 6.893-16.64s-2.448-12.197-6.893-16.641zm-289.704-167.731c0-48.906 39.788-88.693 88.693-88.693s88.694 39.788 88.694 88.693-39.788 88.694-88.694 88.694-88.693-39.789-88.693-88.694zm188.497 108.336c0-2.279.887-4.421 2.5-6.033 1.611-1.612 3.753-2.499 6.033-2.499 2.279 0 4.421.887 6.033 2.499l6.603 6.603-12.066 12.066-6.603-6.603c-1.612-1.612-2.5-3.755-2.5-6.033zm90.601 82.067c0 .001 0 .001 0 0-1.612 1.612-3.754 2.5-6.033 2.5s-4.421-.887-6.033-2.499l-58.826-58.826 12.066-12.066 58.826 58.826c1.612 1.611 2.499 3.754 2.499 6.033s-.887 4.421-2.499 6.032z"/><path d="m304.097 232.468c-12.728 0-25.294 3.448-36.34 9.972-3.566 2.106-4.75 6.706-2.644 10.272 2.107 3.567 6.706 4.751 10.272 2.644 8.737-5.16 18.666-7.888 28.712-7.888 31.225 0 56.629 25.404 56.629 56.629 0 10.047-2.727 19.976-7.887 28.712-2.106 3.566-.922 8.166 2.644 10.272 1.197.707 2.51 1.043 3.807 1.043 2.565 0 5.065-1.318 6.465-3.687 6.523-11.045 9.971-23.611 9.971-36.34 0-39.496-32.133-71.629-71.629-71.629z"/><path d="m332.809 352.838c-8.736 5.16-18.665 7.887-28.712 7.887-31.225 0-56.629-25.404-56.629-56.629 0-10.047 2.728-19.976 7.888-28.712 2.106-3.566.922-8.166-2.644-10.272-3.566-2.105-8.166-.923-10.272 2.644-6.523 11.046-9.972 23.612-9.972 36.34 0 39.496 32.133 71.629 71.629 71.629 12.729 0 25.295-3.448 36.34-9.971 3.566-2.106 4.75-6.706 2.644-10.272-2.106-3.565-6.703-4.75-10.272-2.644z"/><path d="m344.177 416.843c-4.142 0-7.5 3.358-7.5 7.5v8.012c0 9.125-7.423 16.548-16.548 16.548h-288.581c-9.125 0-16.548-7.423-16.548-16.548v-368.742c0-9.125 7.423-16.548 16.548-16.548h56.629v24.564c0 4.142 3.358 7.5 7.5 7.5h160.323c4.142 0 7.5-3.358 7.5-7.5v-24.565h56.629c9.125 0 16.548 7.423 16.548 16.548v120.243c0 4.142 3.358 7.5 7.5 7.5s7.5-3.358 7.5-7.5v-120.242c0-17.396-14.152-31.548-31.548-31.548h-57.862c-3.139-9.308-11.946-16.032-22.3-16.032h-20.742c-5.298 0-10.279-2.063-14.025-5.81l-.02-.02c-6.579-6.579-15.327-10.203-24.632-10.203h-9.419c-9.305 0-18.052 3.624-24.566 10.138-.022.021-.064.062-.086.084-3.746 3.747-8.727 5.81-14.025 5.81h-20.742c-10.354 0-19.16 6.724-22.3 16.032h-57.862c-17.396 0-31.548 14.153-31.548 31.549v368.742c0 17.396 14.152 31.548 31.548 31.548h288.581c17.396 0 31.548-14.152 31.548-31.548v-8.012c0-4.142-3.358-7.5-7.5-7.5zm-232.468-385.811h20.742c9.305 0 18.053-3.624 24.566-10.138.022-.021.064-.062.086-.084 3.747-3.747 8.728-5.81 14.025-5.81h9.419c5.298 0 10.279 2.063 14.026 5.81l.02.02c6.58 6.58 15.327 10.203 24.632 10.203h20.742c4.698 0 8.521 3.817 8.531 8.513 0 .007-.001.013-.001.019 0 .013.002.026.002.039v24.526h-145.322v-24.556c0-.003 0-.006 0-.01 0-.002 0-.003 0-.005.003-4.702 3.83-8.527 8.532-8.527z"/><path d="m47.581 79.129h16.032c4.142 0 7.5-3.358 7.5-7.5s-3.358-7.5-7.5-7.5h-16.032c-8.556 0-15.516 6.96-15.516 15.516v312.629c0 8.556 6.96 15.516 15.516 15.516h168.339c4.142 0 7.5-3.358 7.5-7.5s-3.358-7.5-7.5-7.5h-168.339c-.285 0-.516-.231-.516-.516v-312.629c-.001-.285.231-.516.516-.516z"/><path d="m312.113 183.335c4.142 0 7.5-3.358 7.5-7.5v-96.19c0-8.556-6.96-15.516-15.516-15.516h-16.032c-4.142 0-7.5 3.358-7.5 7.5s3.358 7.5 7.5 7.5h16.032c.285 0 .516.231.516.516v96.19c0 4.142 3.358 7.5 7.5 7.5z"/><path d="m171.831 47.064h8.016c4.142 0 7.5-3.358 7.5-7.5s-3.358-7.5-7.5-7.5h-8.016c-4.142 0-7.5 3.358-7.5 7.5s3.357 7.5 7.5 7.5z"/><path d="m90.374 157.094c1.464 1.464 3.384 2.197 5.303 2.197s3.839-.732 5.303-2.197l28.057-28.057c2.929-2.929 2.929-7.678 0-10.606-2.929-2.929-7.678-2.929-10.606 0l-22.753 22.753-10.729-10.729c-2.929-2.929-7.678-2.929-10.606 0-2.929 2.929-2.929 7.678 0 10.606z"/><path d="m271.516 135.758c0-4.142-3.358-7.5-7.5-7.5h-104.209c-4.142 0-7.5 3.358-7.5 7.5s3.358 7.5 7.5 7.5h104.209c4.142 0 7.5-3.358 7.5-7.5z"/><path d="m74.342 205.19 16.032 16.032c1.464 1.464 3.384 2.197 5.303 2.197s3.839-.732 5.303-2.197l28.057-28.057c2.929-2.929 2.929-7.678 0-10.606-2.929-2.929-7.678-2.929-10.606 0l-22.753 22.753-10.729-10.729c-2.929-2.929-7.678-2.929-10.606 0-2.93 2.93-2.93 7.679-.001 10.607z"/><path d="m247.468 199.887c0-4.142-3.358-7.5-7.5-7.5h-80.161c-4.142 0-7.5 3.358-7.5 7.5s3.358 7.5 7.5 7.5h80.161c4.142 0 7.5-3.358 7.5-7.5z"/><path d="m74.342 269.319 16.032 16.032c1.464 1.464 3.384 2.197 5.303 2.197s3.839-.732 5.303-2.197l28.057-28.057c2.929-2.929 2.929-7.678 0-10.606-2.929-2.929-7.678-2.929-10.606 0l-22.753 22.753-10.729-10.729c-2.929-2.929-7.678-2.929-10.606 0-2.93 2.93-2.93 7.679-.001 10.607z"/><path d="m175.839 256.516h-16.032c-4.142 0-7.5 3.358-7.5 7.5s3.358 7.5 7.5 7.5h16.032c4.142 0 7.5-3.358 7.5-7.5s-3.358-7.5-7.5-7.5z"/><path d="m74.342 333.448 16.032 16.032c1.464 1.465 3.384 2.197 5.303 2.197s3.839-.732 5.303-2.197l28.057-28.056c2.929-2.929 2.929-7.678 0-10.606-2.928-2.929-7.677-2.929-10.606 0l-22.753 22.753-10.729-10.729c-2.929-2.929-7.678-2.929-10.606 0-2.93 2.929-2.93 7.678-.001 10.606z"/><path d="m175.839 335.645c4.142 0 7.5-3.358 7.5-7.5s-3.358-7.5-7.5-7.5h-16.032c-4.142 0-7.5 3.358-7.5 7.5s3.358 7.5 7.5 7.5z"/></g></svg>