<svg id="Layer_1" enable-background="new 0 0 512 512" viewBox="0 0 512 512" xmlns="http://www.w3.org/2000/svg"><path d="m62.011 411.414h76.044c4.418 0 8-3.582 8-8 0-66.139 53.808-119.946 119.946-119.946s119.945 53.808 119.945 119.946c0 4.418 3.582 8 8 8h76.044c4.418 0 8-3.582 8-8 0-116.892-95.098-211.989-211.989-211.989s-211.99 95.098-211.99 211.989c0 4.418 3.582 8 8 8zm211.99-203.814c29.844 1.205 57.992 9.103 82.971 22.249l-30.055 52.056c-16.085-8.097-33.985-13.091-52.916-14.195zm-16 60.11c-18.931 1.104-36.832 6.098-52.917 14.195l-30.055-52.057c24.98-13.145 53.128-21.044 82.972-22.248zm143.713 127.704c-1.104-18.931-6.1-36.835-14.197-52.92l52.043-30.047c13.146 24.98 21.065 53.122 22.269 82.967zm29.826-96.81-52.046 30.049c-10.161-15.373-23.361-28.564-38.733-38.725l30.05-52.049c24.429 15.522 45.206 36.295 60.729 60.725zm-270.349-60.725 30.05 52.049c-15.373 10.161-28.573 23.352-38.734 38.725l-52.046-30.049c15.523-24.43 36.301-45.203 60.73-60.725zm-68.751 74.568 52.043 30.047c-8.097 16.086-13.093 33.989-14.197 52.92h-60.114c1.203-29.845 9.122-57.986 22.268-82.967zm242.747 21.782c-3.125-3.123-8.189-3.123-11.314 0l-37.88 37.88c-5.777-3.703-12.635-5.86-19.992-5.86-20.493 0-37.165 16.672-37.165 37.165s16.671 37.166 37.164 37.166 37.165-16.673 37.165-37.166c0-7.356-2.157-14.213-5.858-19.99l37.88-37.881c3.124-3.125 3.124-8.19 0-11.314zm-69.187 90.351c-11.671 0-21.165-9.495-21.165-21.166s9.494-21.165 21.165-21.165 21.165 9.494 21.165 21.165-9.494 21.166-21.165 21.166zm238 71.42c0 4.418-3.582 8-8 8h-480c-4.418 0-8-3.582-8-8v-480c0-4.418 3.582-8 8-8s8 3.582 8 8v12.539h16.768c4.418 0 8 3.582 8 8s-3.582 8-8 8h-16.768v27.001h16.768c4.418 0 8 3.582 8 8s-3.582 8-8 8h-16.768v27.002h16.768c4.418 0 8 3.582 8 8s-3.582 8-8 8h-16.768v27.001h16.768c4.418 0 8 3.582 8 8s-3.582 8-8 8h-16.768v27.001h16.768c4.418 0 8 3.582 8 8s-3.582 8-8 8h-16.768v27.002h16.768c4.418 0 8 3.582 8 8s-3.582 8-8 8h-16.768v27.001h16.768c4.418 0 8 3.582 8 8s-3.582 8-8 8h-16.768v27.001h16.768c4.418 0 8 3.582 8 8s-3.582 8-8 8h-16.768v27.002h16.768c4.418 0 8 3.582 8 8s-3.582 8-8 8h-16.768v25.003h16.768c4.418 0 8 3.582 8 8 0 .339-.028.671-.069.999.041.328.069.66.069.999 0 4.418-3.582 8-8 8h-16.768v56.449h43.049v-16.768c0-4.418 3.582-8 8-8s8 3.582 8 8v16.768h28.376v-16.768c0-4.418 3.582-8 8-8s8 3.582 8 8v16.768h28.377v-16.768c0-4.418 3.582-8 8-8s8 3.582 8 8v16.768h28.376v-16.768c0-4.418 3.582-8 8-8s8 3.582 8 8v16.768h28.377v-16.768c0-4.418 3.582-8 8-8s8 3.582 8 8v16.768h28.376v-16.768c0-4.418 3.582-8 8-8s8 3.582 8 8v16.768h28.377v-16.768c0-4.418 3.582-8 8-8s8 3.582 8 8v16.768h28.376v-16.768c0-4.418 3.582-8 8-8s8 3.582 8 8v16.768h28.378v-16.768c0-4.418 3.582-8 8-8s8 3.582 8 8v16.768h57.938c4.418 0 8 3.582 8 8zm-419.493-322c1.547 0 3.109-.447 4.485-1.382l114.882-77.964c4.511 3.563 10.2 5.698 16.381 5.698 2.702 0 5.31-.409 7.768-1.165l23.693 34.288c-3.48 4.483-5.56 10.104-5.56 16.206 0 14.602 11.88 26.48 26.481 26.48s26.48-11.879 26.48-26.48c0-1.736-.173-3.432-.493-5.076l114.722-62.646-3.477 5.31c-2.421 3.696-1.387 8.654 2.31 11.075 3.697 2.423 8.655 1.386 11.075-2.31l20.964-32.011c1.566-2.391 1.737-5.436.449-7.987-1.287-2.552-3.839-4.223-6.692-4.383l-38.204-2.149c-4.415-.248-8.188 3.127-8.437 7.538s3.127 8.188 7.538 8.437l10.218.575-118.15 64.517c-4.759-4.561-11.207-7.372-18.303-7.372-2.703 0-5.311.409-7.769 1.165l-23.692-34.288c3.48-4.483 5.56-10.104 5.56-16.206 0-14.602-11.879-26.481-26.48-26.481s-26.481 11.88-26.481 26.481c0 2.625.389 5.158 1.104 7.554l-114.871 77.956c-3.656 2.48-4.608 7.456-2.127 11.111 1.547 2.28 4.064 3.509 6.626 3.509zm198.61-24.319c0 5.779-4.701 10.48-10.48 10.48s-10.481-4.701-10.481-10.48 4.702-10.481 10.481-10.481 10.48 4.701 10.48 10.481zm-62.862-86.292c5.779 0 10.48 4.702 10.48 10.481s-4.701 10.481-10.48 10.481-10.481-4.702-10.481-10.481 4.702-10.481 10.481-10.481z"/></svg>