<svg id="Layer_1" enable-background="new 0 0 66 66" height="512" viewBox="0 0 66 66" width="512" xmlns="http://www.w3.org/2000/svg"><g><g><path d="m59 50.1h-52c-3.4 0-6-2.6-6-6v-36.6c0-3.4 2.6-6 6-6h52c3.4 0 6 2.6 6 6v36.6c0 3.4-2.6 6-6 6zm-52-46.6c-2.2 0-4 1.8-4 4v36.6c0 2.2 1.8 4 4 4h52c2.2 0 4-1.8 4-4v-36.6c0-2.2-1.8-4-4-4z"/></g><g><g><path d="m57.8 43.5h-49.6c-.6 0-1-.4-1-1s.4-1 1-1h48.6v-32.1c0-.6.4-1 1-1s1 .4 1 1v33.1c0 .6-.4 1-1 1z"/></g><g><path d="m12.2 43.4h-3.2c-.6 0-1-.4-1-1v-7c0-.6.4-1 1-1h3.2c.6 0 1 .4 1 1v7c0 .6-.4 1-1 1zm-2.2-2h1.2v-5h-1.2z"/></g><g><path d="m20.3 43.5h-3.2c-.6 0-1-.4-1-1v-11.3c0-.6.4-1 1-1h3.2c.6 0 1 .4 1 1v11.3c0 .6-.4 1-1 1zm-2.2-2h1.2v-9.3h-1.2z"/></g><g><path d="m28.4 43.4h-3.2c-.6 0-1-.4-1-1v-12.8c0-.6.4-1 1-1h3.2c.6 0 1 .4 1 1v12.8c0 .6-.4 1-1 1zm-2.2-2h1.2v-10.8h-1.2z"/></g><g><path d="m36.5 43.4h-3.2c-.6 0-1-.4-1-1v-15.2c0-.6.4-1 1-1h3.2c.6 0 1 .4 1 1v15.2c0 .6-.4 1-1 1zm-2.2-2h1.2v-13.2h-1.2z"/></g><g><path d="m44.6 43.5h-3.2c-.6 0-1-.4-1-1v-19.2c0-.6.4-1 1-1h3.2c.6 0 1 .4 1 1v19.2c0 .6-.4 1-1 1zm-2.2-2h1.2v-17.2h-1.2z"/></g><g><path d="m52.7 43.5h-3.2c-.6 0-1-.4-1-1v-23.6c0-.6.4-1 1-1h3.2c.6 0 1 .4 1 1v23.6c0 .6-.4 1-1 1zm-2.2-2h1.2v-21.6h-1.2z"/></g><g><path d="m9 29.8c-.4 0-.7-.2-.9-.6-.2-.5 0-1.1.4-1.3 1.1-.5 5-3.2 6.4-4.2.2-.2.5-.2.7-.2l8.5 1.3 6.5-6.1c.2-.2.4-.3.7-.3h8.5l9.1-6.7c.4-.3 1.1-.2 1.4.2s.2 1.1-.2 1.4l-9.4 6.9c-.2.1-.4.2-.6.2h-8.4l-6.6 6.1c-.2.2-.5.3-.8.3l-8.6-1.3c-1.2.8-5 3.5-6.3 4.1-.1.2-.2.2-.4.2z"/></g><g><path d="m8.2 23.1c-.4 0-.7-.2-.9-.5-.3-.5-.1-1.1.4-1.4.7-.4 4.9-3.2 6.4-4.3.2-.1.5-.2.7-.2l8.5 1.3 6.5-6.1c.2-.2.5-.3.8-.3l7 .9 4.7-3.5c.4-.3 1.1-.2 1.4.2s.2 1.1-.2 1.4l-5 3.8c-.2.2-.5.2-.7.2l-6.9-.9-6.6 6.1c-.2.2-.5.3-.8.3l-8.6-1.3c-1.3.9-5.4 3.7-6.2 4.1-.2.2-.3.2-.5.2z"/></g><g><path d="m48.6 17.3c-.1 0-.2 0-.2 0-.5-.1-.9-.7-.7-1.2l.7-2.7-2.8-.7c-.5-.1-.9-.7-.7-1.2.1-.5.7-.9 1.2-.7l3.8.9c.3.1.5.2.6.5.1.2.2.5.1.8l-.9 3.7c-.2.3-.6.6-1.1.6z"/></g><g><path d="m42.1 14.8c-.1 0-.2 0-.2 0-.5-.1-.9-.7-.7-1.2l.7-2.8-2.9-.7c-.5-.1-.9-.7-.7-1.2.1-.5.7-.9 1.2-.7l3.7.8c.3.1.5.2.6.4.2.3.2.6.2.8l-.9 3.8c-.1.5-.5.8-1 .8z"/></g></g><g><path d="m49.6 64.5h-33.1c-.3 0-.6-.2-.8-.4-.2-.3-.2-.6-.1-.9l1.8-5.2c.5-1.7 2.1-2.9 3.9-2.9h23.6c1.8 0 3.4 1.2 4 2.9l1.7 5.2c.1.3 0 .6-.1.9-.3.2-.6.4-.9.4zm-31.7-2h30.3l-1.2-3.9c-.3-.9-1.1-1.5-2-1.5h-23.7c-.9 0-1.8.6-2 1.5z"/></g><g><path d="m39 57.1c-.6 0-1-.4-1-1v-7c0-.6.4-1 1-1s1 .4 1 1v7c0 .6-.4 1-1 1z"/></g><g><path d="m27 57.1c-.6 0-1-.4-1-1v-7c0-.6.4-1 1-1s1 .4 1 1v7c0 .6-.4 1-1 1z"/></g></g></svg>