<svg id="Layer_1" height="512" viewBox="0 0 64 64" width="512" xmlns="http://www.w3.org/2000/svg" data-name="Layer 1"><path d="m38 36a2.98 2.98 0 0 0 -1.116.22 2.951 2.951 0 0 0 -3.884-2.037v-6.183a3 3 0 1 0 -6 0v16.358l-.441-.5a1.011 1.011 0 0 0 -.121-.115 3.7 3.7 0 0 0 -5.154 5.244l4.833 7.213a1.048 1.048 0 0 0 .124.151 9.14 9.14 0 0 0 2.145 1.595v5.054h2v-5.682a1 1 0 0 0 -.605-.919 6.891 6.891 0 0 1 -2.058-1.399l-4.807-7.173a.866.866 0 0 0 -.073-.1 1.716 1.716 0 0 1 -.409-1.106 1.69 1.69 0 0 1 2.689-1.373l2.129 2.409a1 1 0 0 0 1.748-.657v-19a1 1 0 0 1 2 0v15h2v-6a1 1 0 0 1 2 0v6h2v-4a1 1 0 0 1 2 0v4h2v-2a1 1 0 1 1 2 0l-.018 8.461a7.138 7.138 0 0 1 -3.48 6.321 1 1 0 0 0 -.5.867v6.351h2v-5.8a9.162 9.162 0 0 0 3.981-7.742l.017-8.458a2.989 2.989 0 0 0 -4.114-2.783 3 3 0 0 0 -2.886-2.217z"/><path d="m34.125 24.79a4.455 4.455 0 0 0 .375-1.79 4.5 4.5 0 1 0 -8.624 1.79 5.239 5.239 0 0 1 1.664-1.4 2.4 2.4 0 0 1 -.04-.39 2.5 2.5 0 1 1 4.961.391 5.247 5.247 0 0 1 1.664 1.399z"/><path d="m24.29 16.108a1.936 1.936 0 0 0 -2.573.675l-1.451 2.4a1.817 1.817 0 0 0 -.2 1.422 1.85 1.85 0 0 0 .906 1.15l.445.246a7.813 7.813 0 0 0 0 2l-.445.246a1.85 1.85 0 0 0 -.906 1.15 1.816 1.816 0 0 0 .2 1.423l1.449 2.4a1.936 1.936 0 0 0 2.574.676l.461-.262v-1.634c0-.128.029-.247.038-.373a1.891 1.891 0 0 0 -.935.222l-.471.259-1.319-2.184.395-.218a1.843 1.843 0 0 0 .953-1.86 5.934 5.934 0 0 1 -.06-.846 5.818 5.818 0 0 1 .062-.847 1.846 1.846 0 0 0 -.953-1.859l-.4-.218 1.319-2.184.471.259a1.967 1.967 0 0 0 2.1-.152 6.715 6.715 0 0 1 1.472-.818 1.883 1.883 0 0 0 1.219-1.738v-.443h2.707v.443a1.883 1.883 0 0 0 1.217 1.738 6.737 6.737 0 0 1 1.48.819 1.964 1.964 0 0 0 2.1.153l.47-.259 1.32 2.184-.4.218a1.845 1.845 0 0 0 -.953 1.86 5.934 5.934 0 0 1 .061.846 5.818 5.818 0 0 1 -.062.847 1.848 1.848 0 0 0 .953 1.859l.4.218-1.32 2.184-.47-.259a1.893 1.893 0 0 0 -.936-.222c.009.126.038.245.038.373v1.638l.461.254a1.936 1.936 0 0 0 2.573-.675l1.451-2.4a1.821 1.821 0 0 0 .2-1.422 1.855 1.855 0 0 0 -.907-1.15l-.437-.247a7.813 7.813 0 0 0 0-2l.445-.246a1.855 1.855 0 0 0 .907-1.15 1.82 1.82 0 0 0 -.2-1.423l-1.449-2.4a1.934 1.934 0 0 0 -2.574-.676l-.485.276a8.815 8.815 0 0 0 -1.872-1.045v-.475a1.887 1.887 0 0 0 -1.909-1.861h-2.9a1.886 1.886 0 0 0 -1.9 1.864v.476a7.1 7.1 0 0 0 -1.83 1.06z"/><path d="m58 1a5 5 0 1 0 5 5 5.006 5.006 0 0 0 -5-5zm0 8a3 3 0 1 1 3-3 3 3 0 0 1 -3 3z"/><path d="m6 42a5 5 0 1 0 -5-5 5.006 5.006 0 0 0 5 5zm0-8a3 3 0 1 1 -3 3 3 3 0 0 1 3-3z"/><path d="m55 29a4 4 0 1 0 4 4 4 4 0 0 0 -4-4zm0 6a2 2 0 1 1 2-2 2 2 0 0 1 -2 2z"/><path d="m11 1a4 4 0 1 0 4 4 4 4 0 0 0 -4-4zm0 6a2 2 0 1 1 2-2 2 2 0 0 1 -2 2z"/><path d="m11.469 30h8.062v2h-8.062z" transform="matrix(.868 -.496 .496 .868 -13.338 11.775)"/><path d="m18.75 6.797h2v7.906h-2z" transform="matrix(.569 -.822 .822 .569 -.33 20.869)"/><path d="m39.981 12.5h13.038v2h-13.038z" transform="matrix(.844 -.537 .537 .844 .024 27.082)"/><path d="m45 23.589h2v8.322h-2z" transform="matrix(.541 -.841 .841 .541 -2.218 51.438)"/></svg>