<?xml version="1.0" encoding="iso-8859-1"?>
<!-- Generator: Adobe Illustrator 19.0.0, SVG Export Plug-In . SVG Version: 6.00 Build 0)  -->
<svg version="1.1" id="Capa_1" xmlns="http://www.w3.org/2000/svg" xmlns:xlink="http://www.w3.org/1999/xlink" x="0px" y="0px"
	 viewBox="0 0 512 512" style="enable-background:new 0 0 512 512;" xml:space="preserve">
<g>
	<g>
		<path d="M256,231.505c-13.46,0-24.411,10.951-24.411,24.412s10.95,24.411,24.411,24.411s24.411-10.95,24.411-24.411
			S269.46,231.505,256,231.505z M256,265.334c-5.192,0-9.417-4.225-9.417-9.417c0-5.193,4.225-9.418,9.417-9.418
			s9.417,4.225,9.417,9.418C265.417,261.109,261.192,265.334,256,265.334z"/>
	</g>
</g>
<g>
	<g>
		<path d="M464.642,435.198h-26.086c47.297-48.139,73.329-111.705,73.329-179.28c0-126.154-90.834-230.379-210.47-251.843
			c-50.337-9.029-101.601-2.99-148.254,17.469c-3.792,1.663-5.519,6.084-3.855,9.876c1.663,3.792,6.084,5.517,9.877,3.855
			C250.756-4.88,355.621,14.866,426.337,85.581c93.362,93.363,93.903,244.914,1.656,338.972v-26.002
			c0-4.141-3.356-7.497-7.497-7.497c-4.141,0-7.497,3.356-7.497,7.497v44.144c0,4.141,3.356,7.497,7.497,7.497h44.145
			c4.141,0,7.497-3.356,7.497-7.497C472.139,438.554,468.783,435.198,464.642,435.198z"/>
	</g>
</g>
<g>
	<g>
		<path d="M365.21,479.19c-1.705-3.771-6.144-5.447-9.92-3.742c-90.722,41.013-199.098,21.335-269.626-49.195
			C-8.26,332.33-8.26,179.504,85.663,85.581c0.063-0.063,0.129-0.126,0.192-0.189v26.043c0,4.14,3.356,7.497,7.497,7.497
			s7.497-3.357,7.497-7.497V67.291c0-4.14-3.356-7.497-7.497-7.497H49.207c-4.141,0-7.497,3.357-7.497,7.497
			s3.356,7.497,7.497,7.497h26.048c-0.064,0.064-0.131,0.127-0.194,0.191C26.732,123.309,0.115,187.568,0.115,255.916
			c0,187.057,193.346,309.147,361.353,233.194C365.24,487.405,366.915,482.963,365.21,479.19z"/>
	</g>
</g>
<g>
	<g>
		<path d="M424.974,222.527H397.05c-3.563-15.154-9.5-29.479-17.706-42.732l19.748-19.748c6.193-6.193,6.194-16.215,0.001-22.409
			l-24.812-24.813c-6.179-6.178-16.231-6.178-22.411,0l-19.748,19.749c-13.252-8.206-27.578-14.141-42.732-17.706V86.945
			c-0.002-8.737-7.11-15.845-15.847-15.845h-35.089c-8.737,0-15.846,7.108-15.846,15.845v27.923
			c-15.154,3.565-29.48,9.5-42.732,17.706l-19.748-19.749c-6.179-6.178-16.231-6.178-22.411,0l-24.812,24.813
			c-6.192,6.192-6.192,16.215,0,22.409l19.749,19.749c-8.206,13.252-14.141,27.577-17.706,42.732H87.028
			c-8.737,0-15.846,7.108-15.846,15.846v35.089c0,8.736,7.108,15.845,15.846,15.845h27.923c3.564,15.154,9.5,29.479,17.706,42.732
			l-19.749,19.749c-6.178,6.178-6.178,16.231,0,22.41l24.812,24.81c6.192,6.194,16.216,6.195,22.411,0.001l19.748-19.749
			c13.252,8.206,27.578,14.141,42.732,17.706v27.923c0,8.737,7.108,15.846,15.846,15.846h35.089c8.737,0,15.846-7.108,15.846-15.846
			v-27.923c15.154-3.563,29.48-9.499,42.732-17.706l19.748,19.748c6.192,6.194,16.216,6.195,22.411,0.001l24.812-24.812
			c6.177-6.178,6.177-16.23-0.001-22.411l-19.748-19.748c8.206-13.253,14.141-27.578,17.706-42.732h27.923
			c8.737,0,15.846-7.108,15.846-15.845v-35.089C440.82,229.636,433.712,222.527,424.974,222.527z M425.824,273.463
			c0,0.47-0.383,0.852-0.853,0.852h-33.991c-3.6,0-6.69,2.558-7.364,6.092c-3.324,17.431-10.075,33.726-20.067,48.432
			c-2.021,2.977-1.644,6.97,0.901,9.515l24.038,24.037c0.332,0.333,0.333,0.874,0,1.205l-24.813,24.811
			c-0.332,0.332-0.873,0.333-1.204-0.001l-24.038-24.038c-2.545-2.543-6.536-2.922-9.515-0.9c-14.705,9.991-31,16.742-48.432,20.066
			c-3.535,0.675-6.092,3.765-6.092,7.364v33.991c0,0.47-0.383,0.853-0.853,0.853h-35.089c-0.47,0-0.853-0.383-0.853-0.853v-33.991
			c0-3.599-2.558-6.689-6.092-7.364c-17.432-3.324-33.727-10.075-48.432-20.066c-2.977-2.022-6.971-1.643-9.515,0.9l-24.035,24.039
			c-0.332,0.332-0.873,0.333-1.204-0.001l-24.812-24.812c-0.333-0.332-0.333-0.872,0-1.203l24.039-24.039
			c2.544-2.545,2.922-6.538,0.9-9.515c-9.992-14.706-16.743-31.001-20.067-48.432c-0.674-3.534-3.765-6.092-7.364-6.092H87.028
			c-0.47,0-0.853-0.382-0.853-0.852v-35.089c0-0.47,0.383-0.853,0.853-0.853h33.991c3.599,0,6.689-2.558,7.364-6.092
			c3.324-17.431,10.075-33.726,20.067-48.431c2.021-2.977,1.644-6.97-0.9-9.514l-24.04-24.039c-0.165-0.166-0.249-0.368-0.249-0.602
			s0.084-0.437,0.25-0.603l24.812-24.813c0.332-0.332,0.873-0.332,1.204,0l24.038,24.039c2.546,2.545,6.54,2.923,9.515,0.9
			c14.705-9.991,30.999-16.742,48.432-20.067c3.534-0.674,6.092-3.765,6.092-7.364V86.945c0-0.47,0.383-0.852,0.853-0.852h35.089
			c0.47,0,0.853,0.382,0.853,0.852v33.99c0,3.598,2.558,6.69,6.092,7.364c17.431,3.326,33.725,10.077,48.43,20.067
			c2.976,2.022,6.97,1.645,9.515-0.9l24.038-24.039c0.332-0.332,0.873-0.332,1.204,0l24.812,24.813
			c0.166,0.166,0.25,0.369,0.25,0.603s-0.084,0.437-0.25,0.603l-24.039,24.039c-2.544,2.544-2.922,6.538-0.9,9.514
			c9.992,14.705,16.743,31,20.067,48.431c0.675,3.535,3.765,6.092,7.364,6.092h33.991c0.47,0,0.853,0.383,0.853,0.853V273.463z"/>
	</g>
</g>
<g>
	<g>
		<path d="M274.915,158.553c-4.067-0.786-7.997,1.873-8.783,5.938c-0.785,4.065,1.873,7.998,5.938,8.783
			c39.465,7.626,68.11,42.381,68.11,82.642c0,46.418-37.763,84.182-84.18,84.182s-84.18-37.763-84.18-84.182
			c0-40.26,28.644-75.016,68.11-82.642c4.065-0.786,6.724-4.718,5.938-8.783c-0.786-4.064-4.713-6.724-8.783-5.938
			c-46.504,8.986-80.259,49.933-80.259,97.363c0,54.685,44.489,99.175,99.174,99.175s99.174-44.49,99.174-99.175
			C355.174,208.486,321.419,167.538,274.915,158.553z"/>
	</g>
</g>
<g>
	<g>
		<path d="M307.622,245.918c4.141,0,7.497-3.356,7.497-7.497v-6.829c0-6.05-3.255-11.687-8.494-14.714l-42.13-24.324
			c-5.241-3.024-11.75-3.024-16.991,0l-42.129,24.324c-5.24,3.026-8.495,8.663-8.495,14.714v48.648
			c0,6.051,3.256,11.688,8.495,14.714l42.13,24.325c2.62,1.512,5.558,2.268,8.494,2.268c2.937,0,5.875-0.757,8.495-2.269
			l42.131-24.324c5.239-3.026,8.493-8.663,8.493-14.714v-6.834c0-4.141-3.356-7.497-7.497-7.497c-4.141,0-7.497,3.356-7.497,7.497
			v6.834c0,0.711-0.383,1.373-0.998,1.728l-42.13,24.324c-0.615,0.355-1.382,0.355-1.997,0l-42.129-24.324
			c-0.616-0.355-0.999-1.019-0.999-1.728v-48.649c0-0.711,0.383-1.373,0.999-1.728l42.128-24.323
			c0.617-0.357,1.383-0.356,1.998-0.001l42.129,24.324c0.616,0.355,0.999,1.019,0.999,1.728v6.829
			C300.125,242.563,303.481,245.918,307.622,245.918z"/>
	</g>
</g>
<g>
</g>
<g>
</g>
<g>
</g>
<g>
</g>
<g>
</g>
<g>
</g>
<g>
</g>
<g>
</g>
<g>
</g>
<g>
</g>
<g>
</g>
<g>
</g>
<g>
</g>
<g>
</g>
<g>
</g>
</svg>
