<svg id="Layer_1" enable-background="new 0 0 512 512" viewBox="0 0 512 512" xmlns="http://www.w3.org/2000/svg"><path d="m320.27 305.94c-17.34-8.28-40.16-12.84-64.25-12.84-24.11 0-46.94 4.56-64.28 12.84-19.23 9.18-29.82 22.06-29.82 36.27v120.79c0 14.24 10.57 27.13 29.76 36.29 17.31 8.27 40.16 12.82 64.33 12.82 24.16 0 47-4.55 64.31-12.82 19.19-9.17 29.76-22.05 29.76-36.29v-120.78c0-14.21-10.59-27.09-29.81-36.28zm13.8 96.94c0 15.65-32.06 33.09-78.05 33.09-46.01 0-78.08-17.44-78.08-33.09v-32.71c3.93 3.02 8.54 5.81 13.8 8.32 17.34 8.28 40.17 12.84 64.28 12.84 24.1 0 46.91-4.56 64.25-12.84 5.26-2.51 9.87-5.3 13.8-8.32zm-78.06-93.76c46 0 78.05 17.44 78.05 33.09s-32.06 33.09-78.05 33.09c-46.01 0-78.08-17.44-78.08-33.09s32.07-33.09 78.08-33.09zm0 186.97c-46.01 0-78.08-17.44-78.08-33.09v-32.12c3.92 3.01 8.51 5.79 13.75 8.29 17.31 8.27 40.16 12.82 64.33 12.82 24.16 0 47-4.55 64.31-12.82 5.24-2.5 9.83-5.28 13.74-8.29v32.12c.01 15.65-32.05 33.09-78.05 33.09zm211.67-496.2h-73.98c-4.36 0-8.32 1.63-11.5 4.76l-24.32 24.35c-3.11 3.11-4.75 7.09-4.75 11.5v128.1c0 8.96 7.29 16.26 16.26 16.26h98.31c8.96 0 16.26-7.29 16.26-16.26v-152.45c-.03-8.97-7.32-16.26-16.28-16.26zm-80.07 21.99v12.54h-12.52zm80.31 146.71c0 .11-.13.24-.24.24h-98.31c-.14 0-.24-.13-.24-.24v-118.16h26.49c4.42 0 8.01-3.58 8.01-8.01v-26.51h64.05c.11 0 .24.13.24.24zm-11.43-97.39c0 4.42-3.58 8.01-8.01 8.01h-59.92c-4.42 0-8.01-3.58-8.01-8.01s3.58-8.01 8.01-8.01h59.92c4.43 0 8.01 3.58 8.01 8.01zm0 52.69c0 4.42-3.58 8.01-8.01 8.01h-59.92c-4.42 0-8.01-3.58-8.01-8.01s3.58-8.01 8.01-8.01h59.92c4.43 0 8.01 3.59 8.01 8.01zm-249.63 60.96h98.31c8.96 0 16.26-7.29 16.26-16.26v-152.44c0-8.96-7.29-16.26-16.26-16.26h-73.98c-4.36 0-8.32 1.63-11.5 4.76l-24.32 24.35c-3.13 3.13-4.78 7.11-4.78 11.5v128.1c-.01 8.96 7.29 16.25 16.27 16.25zm98.55-168.7v152.45c0 .11-.13.24-.24.24h-98.31c-.16 0-.27-.14-.27-.24v-118.17h26.52c4.42 0 8.01-3.58 8.01-8.01v-26.51h64.05c.11 0 .24.12.24.24zm-80.31 5.73v12.54h-12.52zm60.85 41.31c4.42 0 8.01 3.58 8.01 8.01s-3.58 8.01-8.01 8.01h-59.9c-4.42 0-8.01-3.58-8.01-8.01s3.58-8.01 8.01-8.01zm8.01 60.7c0 4.42-3.58 8.01-8.01 8.01h-59.9c-4.42 0-8.01-3.58-8.01-8.01s3.58-8.01 8.01-8.01h59.9c4.42 0 8.01 3.59 8.01 8.01zm-135.05 44.7v-152.44c0-8.96-7.31-16.26-16.28-16.26h-73.96c-4.36 0-8.32 1.63-11.5 4.75l-24.4 24.4c-3.08 3.13-4.7 7.09-4.7 11.45v128.1c0 8.96 7.29 16.26 16.26 16.26h98.31c8.97 0 16.27-7.29 16.27-16.26zm-96.32-146.72v12.54h-12.54zm-18.51 146.72v-118.16h26.52c4.42 0 8.01-3.58 8.01-8.01v-26.51h64.02c.16 0 .27.14.27.24v152.45c0 .1-.11.24-.27.24h-98.31c-.11-.01-.24-.13-.24-.25zm87.37-97.39c0 4.42-3.58 8.01-8.01 8.01h-59.93c-4.42 0-8.01-3.58-8.01-8.01s3.58-8.01 8.01-8.01h59.92c4.43 0 8.02 3.58 8.02 8.01zm0 52.69c0 4.42-3.58 8.01-8.01 8.01h-59.93c-4.42 0-8.01-3.58-8.01-8.01s3.58-8.01 8.01-8.01h59.92c4.43 0 8.02 3.59 8.02 8.01zm295.42 86.37c-5.2 27.28-21.25 48.85-48.96 65.75l8.05 2.68c4.2 1.4 6.47 5.93 5.07 10.13-1.12 3.36-4.24 5.48-7.6 5.48-.84 0-1.69-.13-2.53-.41l-25.63-8.53c-2.02-.67-3.68-2.11-4.63-4.01s-1.11-4.1-.44-6.11l8.53-25.63c1.4-4.2 5.93-6.47 10.13-5.07s6.47 5.93 5.07 10.13l-2.08 6.25c22.23-14.21 35.12-31.83 39.28-53.65.83-4.34 5.02-7.19 9.37-6.37s7.2 5.02 6.37 9.36zm-265.52 71.08c-.95 1.9-2.62 3.34-4.63 4.01l-25.63 8.53c-.84.28-1.69.41-2.53.41-3.35 0-6.48-2.12-7.6-5.48-1.4-4.2.87-8.73 5.07-10.13l8.03-2.67c-27.7-16.94-43.75-38.51-48.94-65.75-.83-4.34 2.02-8.54 6.37-9.37s8.54 2.02 9.37 6.37c4.16 21.79 17.05 39.42 39.29 53.66l-2.09-6.26c-1.4-4.2.87-8.73 5.07-10.13s8.73.87 10.13 5.07l8.53 25.63c.67 2.01.52 4.21-.44 6.11zm102.67-72.58v40.31l5.41-5.41c3.13-3.13 8.2-3.13 11.33 0s3.13 8.2 0 11.33l-19.08 19.08c-1.56 1.56-3.61 2.35-5.66 2.35s-4.09-.78-5.66-2.34l-19.11-19.08c-3.13-3.13-3.13-8.2-.01-11.32 3.12-3.13 8.19-3.13 11.32-.01l5.44 5.43v-40.33c0-4.42 3.58-8.01 8.01-8.01s8.01 3.58 8.01 8z"/></svg>