<svg id="Layer_1" viewBox="0 0 512 512" xmlns="http://www.w3.org/2000/svg" data-name="Layer 1"><path d="m66.749 241.21a6 6 0 0 0 2.411 3.949 105.355 105.355 0 0 0 123.659 0 6.022 6.022 0 0 0 2.41-3.949 66.327 66.327 0 0 0 .764-9.97 65.1 65.1 0 0 0 -42.193-60.86 39.962 39.962 0 1 0 -45.619 0 65.1 65.1 0 0 0 -42.19 60.86 66.323 66.323 0 0 0 .759 9.97zm337.051-70.83a39.962 39.962 0 1 0 -45.619 0 65.1 65.1 0 0 0 -42.19 60.86 66.323 66.323 0 0 0 .759 9.97 5.989 5.989 0 0 0 2.411 3.949 105.355 105.355 0 0 0 123.659 0 6.022 6.022 0 0 0 2.41-3.949 66.224 66.224 0 0 0 .76-9.97 65.106 65.106 0 0 0 -42.19-60.86zm-125 208.41a39.961 39.961 0 1 0 -45.619 0 65.024 65.024 0 0 0 -41.43 70.83 5.971 5.971 0 0 0 2.405 3.939 105.32 105.32 0 0 0 123.664 0 5.972 5.972 0 0 0 2.406-3.939 65.035 65.035 0 0 0 -41.426-70.83zm191.4-6.05-208.21-120.211v-240.458c131.782 3.189 238 111.388 238 243.919a242.579 242.579 0 0 1 -29.79 116.75zm-214.21 127.25c-88 0-165.259-46.83-208.189-116.871l208.189-120.199 208.19 120.2c-42.93 70.04-120.187 116.87-208.19 116.87zm-6-487.919v240.458l-208.209 120.211a242.587 242.587 0 0 1 -29.788-116.75c0-132.531 106.215-240.73 238-243.919zm6-12.08c141.16 0 256 114.839 256 256s-114.842 256-256 256-256-114.84-256-256 114.841-256 256-256z" fill-rule="evenodd"/></svg>