<svg id="Layer_1" enable-background="new 0 0 512 512" height="512" viewBox="0 0 512 512" width="512" xmlns="http://www.w3.org/2000/svg"><g><path d="m471.126 316.614c36.442-37.065 9.654-101.197-42.87-101.057-52.523-.141-79.314 64.002-42.87 101.057-24.457 14.622-40.874 41.358-40.874 71.866v80.665c0 8.284 6.716 15 15 15h137.488c8.284 0 15-6.716 15-15v-80.665c0-30.507-16.417-57.243-40.874-71.866zm-42.869-71.057c16.379 0 29.704 13.288 29.704 29.622-1.631 39.297-57.785 39.284-59.409 0 0-16.334 13.325-29.622 29.705-29.622zm53.743 208.588h-107.487v-65.665c0-29.599 24.081-53.68 53.68-53.68h.128c29.599 0 53.68 24.081 53.68 53.68v65.665z"/><path d="m126.614 316.614c36.442-37.065 9.654-101.198-42.871-101.057-52.523-.141-79.314 64.003-42.869 101.057-24.457 14.623-40.874 41.359-40.874 71.866v80.665c0 8.284 6.716 15 15 15h137.487c8.284 0 15-6.716 15-15v-80.665c0-30.507-16.417-57.243-40.873-71.866zm-42.87-71.057c16.379 0 29.705 13.288 29.705 29.622-1.631 39.296-57.784 39.285-59.409 0-.001-16.334 13.325-29.622 29.704-29.622zm53.743 208.588h-107.487v-65.665c0-29.599 24.081-53.68 53.68-53.68h.128c29.599 0 53.68 24.081 53.68 53.68v65.665z"/><path d="m321.22 224.299c-7.62-3.255-16.433.281-19.688 7.9l-98.721 231.053c-3.255 7.618.282 16.433 7.9 19.688 7.431 3.23 16.43-.205 19.687-7.9l98.722-231.053c3.255-7.619-.282-16.434-7.9-19.688z"/><path d="m323.047 171.847c24.388 0 44.871-15.59 48.707-37.069 2.891-16.192-4.422-37.333-33.617-48.102-13.873-5.117-26.799-10.688-30.901-12.482-2.727-2.255-2.631-5.362-2.444-6.665.269-1.869 1.638-6.442 8.54-8.521 12.703-3.825 24.57 2.89 29.081 5.956 6.852 4.656 16.182 2.877 20.838-3.975 4.656-6.853 2.877-16.182-3.975-20.838-8.068-5.482-29.538-17.418-54.597-9.868-32.172 8.986-41.257 51.047-13.089 69.585.663.432 1.358.811 2.081 1.133.661.295 16.381 7.293 34.083 13.822 3.762 1.387 15.92 6.546 14.467 14.683-1.083 6.066-8.552 12.342-19.174 12.342-11.121 0-21.816-4.475-28.608-11.97-5.562-6.139-15.049-6.605-21.188-1.043-6.139 5.563-6.605 15.049-1.043 21.188 12.569 13.869 31.1 21.824 50.839 21.824z"/><path d="m210.544 159.931c.011-.033.022-.066.033-.1l37.22-112.038c2.612-7.862-1.644-16.353-9.506-18.965-7.86-2.613-16.353 1.644-18.964 9.507l-25.68 77.299-26.97-77.698c-2.716-7.826-11.263-11.964-19.089-9.252-7.826 2.717-11.968 11.264-9.251 19.09l38.974 112.281c.012.034.024.069.036.104 2.5 7.043 9.214 11.744 16.679 11.688 7.475-.05 14.113-4.839 16.518-11.916z"/></g></svg>